<?xml version="1.0" encoding="iso-8859-1"?>
<!-- Generator: Adobe Illustrator 19.0.0, SVG Export Plug-In . SVG Version: 6.00 Build 0)  -->
<svg version="1.1" id="Layer_1" xmlns="http://www.w3.org/2000/svg" xmlns:xlink="http://www.w3.org/1999/xlink" x="0px" y="0px"
	 viewBox="0 0 512 512" style="enable-background:new 0 0 512 512;" xml:space="preserve">
<g>
	<circle style="fill:#A0EBFF;" cx="256" cy="256" r="256"/>
	<path style="fill:#C3D63C;" d="M168.771,104.914c33.454-19.313,106.547,21.212,157.952,110.249s49.956,172.605,16.502,191.918
		c-33.454,19.313-106.547-21.212-157.952-110.249S135.322,124.232,168.771,104.914z M158.628,87.347
		c-48.763,28.155-44.698,126.484,9.078,219.633s136.904,145.828,185.667,117.673c48.763-28.155,44.698-126.484-9.078-219.633
		C290.519,111.877,207.391,59.192,158.628,87.347z"/>
	<path style="fill:#D03E00;" d="M279.009,114.36L279.009,114.36c15.048-8.689,43.397-21.468,64.22-9.446
		c33.454,19.313,34.903,102.881-16.502,191.918c-25.692,44.503-59.858,81.244-93.732,100.803
		c-15.048,8.689-43.402,21.468-64.225,9.452c-16.486-9.518-25.155-33.951-23.788-67.036c1.582-38.267,15.892-82.616,40.289-124.882
		C210.97,170.665,245.135,133.924,279.009,114.36z M268.861,96.799c-35.63,20.572-72.545,58.675-101.156,108.227
		c-53.775,93.143-57.841,191.473-9.078,219.628c22.82,13.179,53.166,8.648,84.511-9.452c35.63-20.572,72.545-58.675,101.156-108.227
		c53.775-93.143,57.841-191.478,9.078-219.633C330.547,74.168,300.206,78.7,268.861,96.799z"/>
	<path style="fill:#335872;" d="M111.703,187.53l10.143,17.572c33.869-19.553,82.765-30.771,134.154-30.771
		c102.81,0,174.459,43.039,174.459,81.669c0,24.038-25.247,42.204-40.294,50.893c-33.874,19.558-82.77,30.771-134.159,30.771
		c-48.799,0-94.362-9.784-128.297-27.546C98.371,294.758,81.546,275.036,81.546,256c0-24.038,25.247-42.204,40.294-50.893
		L111.703,187.53z M111.693,187.535C80.353,205.629,61.256,229.647,61.256,256c0,56.31,87.188,101.955,194.744,101.955
		c57.221,0,108.672-12.918,144.307-33.49c31.34-18.094,50.437-42.112,50.437-68.465c0-56.31-87.188-101.955-194.744-101.955
		C198.779,154.045,147.323,166.963,111.693,187.535z"/>
	<circle style="fill:#FDF35A;" cx="255.816" cy="257.331" r="48.399"/>
	<path style="fill:#F7BF00;" d="M255.816,208.906v96.804c26.732,0,48.399-21.668,48.399-48.399
		C304.215,230.579,282.547,208.906,255.816,208.906z"/>
</g>
<g>
</g>
<g>
</g>
<g>
</g>
<g>
</g>
<g>
</g>
<g>
</g>
<g>
</g>
<g>
</g>
<g>
</g>
<g>
</g>
<g>
</g>
<g>
</g>
<g>
</g>
<g>
</g>
<g>
</g>
</svg>
