<?xml version="1.0" encoding="iso-8859-1"?>
<!-- Generator: Adobe Illustrator 19.0.0, SVG Export Plug-In . SVG Version: 6.00 Build 0)  -->
<svg version="1.1" id="Capa_1" xmlns="http://www.w3.org/2000/svg" xmlns:xlink="http://www.w3.org/1999/xlink" x="0px" y="0px"
	 viewBox="0 0 512 512" style="enable-background:new 0 0 512 512;" xml:space="preserve">
<polygon style="fill:#FE5F1A;" points="512,135 512,30 407,30 377,165 "/>
<polygon style="fill:#737373;" points="407,165 407,30 256,30 226,165 "/>
<g>
	<polygon style="fill:#969696;" points="256,30 0,30 0,135 256,165 	"/>
	<polygon style="fill:#969696;" points="482,135 196,308.5 256,482 512,482 512,135 	"/>
</g>
<polygon style="fill:#B9B9B9;" points="0,135 0,482 256,482 256,165 30,135 "/>
<polygon style="fill:#81E3E2;" points="256,135 203.031,293.5 256,452 482,452 482,135 "/>
<rect x="30" y="135" style="fill:#ABECEC;" width="226" height="317"/>
<polygon style="fill:#D5F6F5;" points="452,278.5 256,278.5 226,323.5 256,368.5 452,368.5 "/>
<rect x="60" y="278.5" style="fill:#FFFFFF;" width="196" height="90"/>
<polygon style="fill:#027372;" points="392,218.5 256,218.5 236,233.5 256,248.5 392,248.5 "/>
<rect x="120" y="218.5" style="fill:#02ACAB;" width="136" height="30"/>
<g>
</g>
<g>
</g>
<g>
</g>
<g>
</g>
<g>
</g>
<g>
</g>
<g>
</g>
<g>
</g>
<g>
</g>
<g>
</g>
<g>
</g>
<g>
</g>
<g>
</g>
<g>
</g>
<g>
</g>
</svg>
