<svg id="Capa_1" enable-background="new 0 0 512 512" height="512" viewBox="0 0 512 512" width="512" xmlns="http://www.w3.org/2000/svg"><g><path d="m428.397 139.454h-34.417c-6.758 0-12.237-5.479-12.237-12.237v-23.662c0-6.758 5.479-12.237 12.237-12.237h34.417l.174-10.242c0-18.13-14.697-32.827-32.827-32.827h-345.508c-18.13 0-32.827 14.697-32.827 32.827v239.431h30.587c8.456 0 15.312 6.855 15.312 15.312v25.474h-45.899v25.688c0 10.596 8.59 19.186 19.186 19.186h438.811c10.596 0 19.186-8.59 19.186-19.186v-25.688h-45.898v-25.474c0-8.456 6.855-15.312 15.312-15.312h30.587v-21.024c0-10.596-8.59-19.186-19.186-19.186h-81.251c-6.758 0-12.237-5.479-12.237-12.237v-23.661c0-6.758 5.479-12.237 12.237-12.237h34.418z" fill="#dd5c6e"/><path d="m121.691 48.248h-71.455c-18.13 0-32.827 14.698-32.827 32.828v239.431h30.587c8.456 0 15.312 6.855 15.312 15.312v25.474h-45.899v25.688c0 10.596 8.59 19.186 19.186 19.186h148.303c-57.534-75.739-66.894-247.634-63.207-357.919z" fill="#d4364c"/><path d="m428.572 182.523h-79.181v87.293c0 5.788 4.692 10.481 10.481 10.481h34.282c-6.758-.001-12.236-5.479-12.236-12.237v-23.661c0-6.758 5.479-12.237 12.237-12.237h34.418v-49.639z" fill="#d4364c"/><path d="m287.497 280.296h-54.358c-6.758 0-12.237-5.479-12.237-12.237v-23.662c0-6.758 5.479-12.237 12.237-12.237h54.358c6.758 0 12.237 5.479 12.237 12.237v23.662c.001 6.759-5.478 12.237-12.237 12.237z" fill="#cde9fa"/><path d="m287.497 280.296c6.758 0 12.237-5.479 12.237-12.237v-23.661c0-4.138-2.06-7.79-5.205-10.005l-45.903 45.903z" fill="#a2ddfd"/><path d="m287.497 139.454h-54.358c-6.758 0-12.237-5.479-12.237-12.237v-23.662c0-6.758 5.479-12.237 12.237-12.237h54.358c6.758 0 12.237 5.479 12.237 12.237v23.662c.001 6.758-5.478 12.237-12.237 12.237z" fill="#cde9fa"/><path d="m287.497 139.454c6.758 0 12.237-5.479 12.237-12.237v-23.661c0-4.139-2.06-7.79-5.205-10.005l-45.903 45.903z" fill="#a2ddfd"/><path d="m428.397 139.454h-34.417c-6.758 0-12.237-5.479-12.237-12.237v-23.662c0-6.758 5.479-12.237 12.237-12.237h34.417z" fill="#cde9fa"/><path d="m428.572 280.296h-34.418c-6.758 0-12.237-5.479-12.237-12.237v-23.662c0-6.758 5.479-12.237 12.237-12.237h34.418z" fill="#a2ddfd"/><path d="m148.042 280.296h-54.358c-6.758 0-12.237-5.479-12.237-12.237v-23.662c0-6.758 5.479-12.237 12.237-12.237h54.358c6.758 0 12.237 5.479 12.237 12.237v23.662c0 6.759-5.478 12.237-12.237 12.237z" fill="#cde9fa"/><path d="m93.684 280.296h43.256c-3.049-15.637-5.58-31.78-7.66-48.136h-35.596c-6.758 0-12.237 5.479-12.237 12.237v23.662c0 6.759 5.478 12.237 12.237 12.237z" fill="#a2ddfd"/><path d="m148.042 139.454h-54.358c-6.758 0-12.237-5.479-12.237-12.237v-23.662c0-6.758 5.479-12.237 12.237-12.237h54.358c6.758 0 12.237 5.479 12.237 12.237v23.662c0 6.758-5.478 12.237-12.237 12.237z" fill="#cde9fa"/><path d="m93.684 139.454h28.215c-.625-16.505-.905-32.654-.91-48.136h-27.305c-6.758 0-12.237 5.479-12.237 12.237v23.662c0 6.758 5.478 12.237 12.237 12.237z" fill="#a2ddfd"/><path d="m74.599 361.293h-61.756c-7.093 0-12.843 5.75-12.843 12.843v23.765c0 7.093 5.75 12.843 12.843 12.843h61.756c7.093 0 12.843-5.75 12.843-12.843v-23.765c0-7.093-5.75-12.843-12.843-12.843z" fill="#a2ddfd"/><path d="m47.995 320.507h-30.586v40.786h45.898v-25.474c0-8.457-6.855-15.312-15.312-15.312z" fill="#f6ee86"/><path d="m437.401 361.293h61.756c7.093 0 12.843 5.75 12.843 12.843v23.765c0 7.093-5.75 12.843-12.843 12.843h-61.756c-7.093 0-12.843-5.75-12.843-12.843v-23.765c0-7.093 5.75-12.843 12.843-12.843z" fill="#a2ddfd"/><path d="m464.005 320.507h30.587v40.786h-45.898v-25.474c-.001-8.457 6.854-15.312 15.311-15.312z" fill="#f6ee86"/><circle cx="134.261" cy="406.166" fill="#4e5660" r="57.585"/><ellipse cx="134.261" cy="406.166" fill="#cde9fa" rx="24.05" ry="24.05" transform="matrix(.973 -.232 .232 .973 -90.62 42.263)"/><circle cx="377.739" cy="406.166" fill="#4e5660" r="57.585"/><ellipse cx="377.739" cy="406.166" fill="#cde9fa" rx="24.05" ry="24.05" transform="matrix(.23 -.973 .973 .23 -104.349 680.483)"/><g fill="#fbf1cf"><path d="m299.734 345.913h-87.469c-4.142 0-7.5-3.358-7.5-7.5s3.358-7.5 7.5-7.5h87.469c4.143 0 7.5 3.358 7.5 7.5s-3.357 7.5-7.5 7.5z"/><path d="m17.409 175.023h411.163v15h-411.163z"/></g></g></svg>