<svg id="flat" height="512" viewBox="0 0 512 512" width="512" xmlns="http://www.w3.org/2000/svg"><path d="m488 256a234.52472 234.52472 0 0 1 -2.18994 32 231.40178 231.40178 0 0 1 -65.76026 132.05005q-1.9951 1.99475-4.04 3.95a231.997 231.997 0 0 1 -341.91971-312.00005 232.73148 232.73148 0 0 1 77.53979-63.24 230.89937 230.89937 0 0 1 104.37012-24.76v232z" fill="#4976f2"/><g fill="#548aff"><path d="m256 160.56006v4.88994a16.006 16.006 0 0 1 -9.7 14.71l-40.71 17.44019a15.95643 15.95643 0 0 1 -11.36011.48l-15.77-5.26a16.09958 16.09958 0 0 0 -5.05999-.82019h-5.3999a15.99548 15.99548 0 0 0 -16 16v11.15991a16.02933 16.02933 0 0 1 -2.68994 8.87012l-8.16016 12.24a16.0074 16.0074 0 0 0 -1 16.03l7.43018 14.85986a15.99534 15.99534 0 0 0 14.31006 8.84011h30.10986a15.99548 15.99548 0 0 1 16 16v28.22a16.00819 16.00819 0 0 1 -1.68994 7.15991l-12.62012 25.24024a16.00741 16.00741 0 0 0 -1.68994 7.15985v28.22a15.99564 15.99564 0 0 1 -16 16h-7.22a15.99544 15.99544 0 0 1 -13.5-7.41016l-47.59009-74.78979a15.95878 15.95878 0 0 1 -2.02-12.47l4.61011-18.46a15.98186 15.98186 0 0 0 -2.21-12.76026l-25.38008-38.07979a16.02933 16.02933 0 0 1 -2.68994-8.87009v-27.15991a15.99548 15.99548 0 0 0 -16-16h-31.06006a231.46793 231.46793 0 0 1 41.15015-80h45.34985a15.99591 15.99591 0 0 1 13.31006 7.12012l2.37012 3.56982a15.99717 15.99717 0 0 0 22.18994 4.43018l2.96-1.97022a16.0074 16.0074 0 0 1 16.03-1l20.32007 10.16016a16.00819 16.00819 0 0 0 7.15987 1.68994h23.37988a16.02933 16.02933 0 0 1 8.87012 2.68994l12.84988 8.56006a15.99591 15.99591 0 0 1 7.12012 13.31006z"/><path d="m488 256a234.52472 234.52472 0 0 1 -2.18994 32h-37.81006a15.99564 15.99564 0 0 0 -16 16v5.3999a16.11339 16.11339 0 0 1 -.81982 5.06006l-11.53028 34.6001a16.01437 16.01437 0 0 1 -15.18017 10.93994h-7.13965a15.988 15.988 0 0 1 -9.6001-3.2l-22.6001-16.94995a15.97789 15.97789 0 0 1 -6.17968-10.17017l-5.94043-35.63988a15.9853 15.9853 0 0 0 -5.79-9.86011l-35.21977-28.17989z"/><path d="m256 24v64h-36.47a16.01407 16.01407 0 0 1 -15.1799-10.93994l-1.77-5.31006a15.98567 15.98567 0 0 0 -10.37012-10.2l-40.5801-12.79a230.89937 230.89937 0 0 1 104.37012-24.76z"/><path d="m416.00977 424a232.23309 232.23309 0 0 1 -246.98977 47.12988l52.10988-44.66988a16.07539 16.07539 0 0 1 6.53-3.37988l20.40015-5.1001a15.987 15.987 0 0 0 10.98-9.58008l8.93997-22.33988a15.9892 15.9892 0 0 1 14.85008-10.06006h14.54a16.00775 16.00775 0 0 1 11.31982 4.68994l31.34037 31.34006a16.00187 16.00187 0 0 0 9.54981 4.59009z"/></g><path d="m304 152h56v64h-56z" fill="#ffa100"/><path d="m360 104h56v112h-56z" fill="#ffb401"/><path d="m416 64h56v152h-56z" fill="#ffc431"/><path d="m480 16h16v16h-16z" fill="#ffe28f"/><path d="m304 128h-48v-16h44.68652l93.65625-93.65723a8.00235 8.00235 0 0 1 5.65723-2.34277h64v16h-60.68652l-93.65625 93.65723a8.00235 8.00235 0 0 1 -5.65723 2.34277z" fill="#ffe28f"/><path d="m256 208h240v16h-240z" fill="#ffe28f"/></svg>