<?xml version="1.0" encoding="iso-8859-1"?>
<!-- Generator: Adobe Illustrator 19.0.0, SVG Export Plug-In . SVG Version: 6.00 Build 0)  -->
<svg version="1.1" id="Layer_1" xmlns="http://www.w3.org/2000/svg" xmlns:xlink="http://www.w3.org/1999/xlink" x="0px" y="0px"
	 viewBox="0 0 512 512" style="enable-background:new 0 0 512 512;" xml:space="preserve">
<g>
	<circle style="fill:#A0EBFF;" cx="256" cy="256" r="256"/>
	<path style="fill:#335872;" d="M364.396,378.225l8.822,4.444c4.255-8.438,7.071-17.464,8.371-26.829l-9.8-1.362
		c0.486-3.482,0.824-7.009,0.824-10.624c0-6.318-0.85-12.426-2.294-18.299l9.605-2.36c-2.253-9.165-5.98-17.853-11.08-25.825
		l-8.315,5.32c-5.258-8.212-12.027-15.34-19.937-21.012l5.755-8.023c-7.69-5.514-16.164-9.702-25.19-12.436l-2.852,9.405
		c-7.04-2.135-14.5-3.308-22.236-3.308v-9.8c-9.477,0-18.801,1.531-27.709,4.547l3.164,9.349
		c-9.334,3.164-17.853,8.054-25.18,14.326l-6.41-7.485c-7.173,6.144-13.256,13.363-18.084,21.463l8.494,5.064
		c-4.9,8.218-8.279,17.418-9.81,27.254l-9.779-1.521c-0.681,4.388-1.029,8.878-1.029,13.348c0,4.931,0.42,9.882,1.249,14.705
		l9.743-1.674c1.684,9.8,5.222,18.939,10.26,27.09l-8.412,5.197c4.956,8.023,11.151,15.145,18.422,21.171l6.262-7.552
		c7.419,6.154,16.031,10.911,25.426,13.926l-3.005,9.359c8.509,2.729,17.393,4.116,26.399,4.116l1.372-0.01l-0.154-9.851
		c10.045-0.159,19.63-2.212,28.38-5.883l3.799,9.047c8.689-3.645,16.691-8.673,23.777-14.94l-6.548-7.404
		C353.971,394.726,359.992,386.964,364.396,378.225z M296.079,376.735c-18.161,0-32.881-14.72-32.881-32.881
		c0-18.161,14.72-32.881,32.881-32.881s32.881,14.72,32.881,32.881C328.96,362.015,314.24,376.735,296.079,376.735z"/>
	<path style="fill:#153040;" d="M371.794,354.478c0.486-3.482,0.824-7.009,0.824-10.624c0-6.318-0.85-12.426-2.294-18.299
		l9.605-2.36c-2.253-9.165-5.98-17.853-11.08-25.825l-8.315,5.32c-5.258-8.212-12.027-15.34-19.937-21.012l5.755-8.023
		c-7.69-5.514-16.164-9.702-25.19-12.436l-2.852,9.405c-7.04-2.135-14.5-3.308-22.236-3.308v43.658
		c18.161,0,32.881,14.72,32.881,32.881s-14.72,32.881-32.881,32.881v53.458l1.372-0.01l-0.154-9.851
		c10.045-0.159,19.63-2.212,28.38-5.883l3.799,9.047c8.689-3.645,16.691-8.673,23.777-14.94l-6.548-7.404
		c7.265-6.426,13.286-14.188,17.695-22.927l8.822,4.444c4.255-8.438,7.071-17.464,8.371-26.829L371.794,354.478z"/>
	<path style="fill:#C3D63C;" d="M296.079,291.43c-28.954,0-52.424,23.47-52.424,52.424c0,28.954,23.47,52.424,52.424,52.424
		c28.954,0,52.424-23.47,52.424-52.424C348.503,314.9,325.033,291.43,296.079,291.43z M296.079,366.377
		c-12.436,0-22.523-10.081-22.523-22.523c0-12.436,10.081-22.523,22.523-22.523c12.436,0,22.523,10.081,22.523,22.523
		C318.602,356.296,308.516,366.377,296.079,366.377z"/>
	<path style="fill:#A5B81E;" d="M296.079,291.43l-0.64,0.031v29.937l0.64-0.067c12.436,0,22.523,10.081,22.523,22.523
		c0,12.442-10.081,22.523-22.523,22.523l-0.64-0.067v29.937l0.64,0.031c28.954,0,52.424-23.47,52.424-52.424
		C348.503,314.9,325.033,291.43,296.079,291.43z"/>
	<path style="fill:#335872;" d="M238.612,275.866l7.946,5.868c5.612-7.598,9.912-16.026,12.769-25.032l-9.426-2.995
		c1.065-3.348,1.992-6.769,2.601-10.332c1.065-6.226,1.254-12.39,0.819-18.422l9.866-0.707c-0.676-9.416-2.888-18.606-6.569-27.32
		l-9.093,3.845c-3.799-8.98-9.272-17.147-16.113-24.069l7.025-6.938c-6.651-6.733-14.3-12.283-22.733-16.502l-4.393,8.791
		c-6.579-3.292-13.732-5.699-21.361-7.004l1.654-9.661c-9.344-1.597-18.79-1.659-28.078-0.189l1.546,9.748
		c-9.733,1.546-18.954,4.931-27.233,9.882l-5.059-8.458c-8.105,4.849-15.319,10.941-21.437,18.109l7.521,6.42
		c-6.216,7.276-11.095,15.775-14.259,25.211l-9.385-3.144c-1.413,4.209-2.509,8.576-3.261,12.984
		c-0.829,4.859-1.249,9.81-1.244,14.705l9.887-0.01c0.01,9.943,1.961,19.548,5.55,28.431l-9.17,3.707
		c3.533,8.74,8.443,16.809,14.592,23.972l7.444-6.39c6.277,7.316,13.962,13.455,22.712,18.012l-4.536,8.719
		c7.926,4.127,16.451,6.984,25.329,8.504l1.357,0.22l1.51-9.738c9.928,1.536,19.722,1.132,28.964-1.019l2.217,9.559
		c9.18-2.13,17.91-5.74,25.953-10.721l-5.207-8.402C225.551,290.381,232.796,283.745,238.612,275.866z M171.52,262.892
		c-17.9-3.062-29.932-20.05-26.87-37.949c3.062-17.9,20.05-29.932,37.949-26.87c17.9,3.057,29.932,20.05,26.87,37.949
		C206.408,253.921,189.42,265.953,171.52,262.892z"/>
	<path style="fill:#153040;" d="M249.902,253.711c1.065-3.348,1.992-6.769,2.601-10.332c1.065-6.226,1.254-12.39,0.819-18.422
		l9.866-0.707c-0.676-9.416-2.888-18.606-6.569-27.32l-9.093,3.845c-3.799-8.98-9.272-17.147-16.113-24.069l7.025-6.938
		c-6.651-6.733-14.3-12.283-22.733-16.502l-4.393,8.791c-6.579-3.292-13.732-5.699-21.361-7.004l-7.357,43.034
		c17.9,3.062,29.932,20.05,26.87,37.949s-20.05,29.932-37.949,26.87l-9.006,52.695l1.357,0.22l1.51-9.738
		c9.928,1.536,19.722,1.132,28.964-1.019l2.217,9.559c9.18-2.13,17.91-5.74,25.953-10.721l-5.207-8.402
		c8.243-5.11,15.488-11.745,21.304-19.62l7.946,5.868c5.612-7.598,9.912-16.026,12.769-25.032L249.902,253.711z"/>
	<path style="fill:#FDF35A;" d="M185.892,178.806c-28.539-4.879-55.629,14.305-60.508,42.844s14.305,55.629,42.844,60.508
		s55.629-14.305,60.508-42.844C233.615,210.775,214.431,183.685,185.892,178.806z M173.266,252.682
		c-12.262-2.094-20.5-13.732-18.406-25.994c2.094-12.262,13.732-20.5,25.994-18.406c12.262,2.094,20.5,13.732,18.406,25.994
		C197.166,246.538,185.528,254.776,173.266,252.682z"/>
	<path style="fill:#F7BF00;" d="M185.892,178.806l-0.64-0.077l-5.043,29.507l0.645,0.046c12.262,2.094,20.5,13.732,18.406,25.994
		c-2.094,12.262-13.732,20.5-25.994,18.406l-0.62-0.174l-5.043,29.507l0.625,0.138c28.539,4.879,55.629-14.305,60.508-42.844
		C233.615,210.775,214.431,183.685,185.892,178.806z"/>
	<path style="fill:#D03E00;" d="M394.163,186.86c0.369-2.816,0.625-5.668,0.599-8.586c-0.036-5.105-0.763-10.03-1.961-14.766
		l7.747-1.966c-1.874-7.388-4.936-14.387-9.103-20.792l-6.682,4.347c-4.296-6.605-9.805-12.319-16.23-16.855l4.603-6.518
		c-6.246-4.408-13.117-7.741-20.424-9.897l-2.248,7.613c-1.423-0.42-2.872-0.794-4.337-1.111c-4.393-0.963-8.96-1.459-13.645-1.423
		l0,0l-0.056-7.921c-7.66,0.056-15.181,1.347-22.354,3.84l2.616,7.532c-7.521,2.611-14.372,6.61-20.255,11.725l-5.222-6.011
		c-5.76,5.007-10.629,10.875-14.479,17.444l6.892,4.04c-3.907,6.666-6.584,14.121-7.762,22.072l-7.91-1.167
		c-0.522,3.548-0.778,7.178-0.748,10.788c0.031,3.983,0.399,7.977,1.096,11.873l7.859-1.408c1.418,7.905,4.332,15.268,8.448,21.821
		l-6.764,4.25c4.05,6.451,9.098,12.165,15.007,16.993l5.012-6.139c6.031,4.925,13.015,8.719,20.618,11.1l-2.371,7.578
		c6.892,2.156,14.075,3.22,21.35,3.164l0,0l1.111-0.015l-0.184-7.956c8.115-0.189,15.841-1.905,22.892-4.92l3.123,7.286
		c6.999-3,13.43-7.107,19.118-12.211l-5.33-5.939c5.832-5.233,10.65-11.54,14.157-18.627l7.153,3.538
		c3.384-6.84,5.606-14.147,6.6-21.719L394.163,186.86z M314.747,178.862c-0.072-10.045,8.013-18.253,18.058-18.324
		c10.045-0.077,18.253,8.008,18.324,18.058c0.02,2.514-0.471,4.91-1.377,7.091c-0.906,2.181-2.222,4.152-3.855,5.811
		c-3.267,3.318-7.803,5.386-12.826,5.422C323.026,196.997,314.819,188.913,314.747,178.862z"/>
	<path style="fill:#9C2E00;" d="M394.163,186.86c0.369-2.816,0.625-5.668,0.599-8.586c-0.036-5.105-0.763-10.03-1.961-14.766
		l7.747-1.966c-1.874-7.388-4.936-14.387-9.103-20.792l-6.682,4.347c-4.296-6.605-9.805-12.319-16.23-16.855l4.603-6.518
		c-6.246-4.408-13.117-7.741-20.424-9.897l-2.248,7.613c-1.423-0.42-2.872-0.794-4.337-1.111c-4.342-0.952-8.858-1.439-13.486-1.418
		v43.643l0.164-0.015c10.045-0.077,18.253,8.008,18.324,18.058c0.02,2.514-0.471,4.91-1.377,7.091
		c-0.906,2.181-2.222,4.152-3.855,5.811c-3.267,3.318-7.803,5.386-12.826,5.422l-0.435-0.041v51.564l0.814,0.026l0,0l1.111-0.015
		l-0.184-7.956c8.115-0.189,15.841-1.905,22.892-4.92l3.123,7.286c6.999-3,13.43-7.107,19.118-12.211l-5.33-5.939
		c5.832-5.233,10.65-11.54,14.157-18.627l7.153,3.538c3.384-6.84,5.606-14.147,6.6-21.719L394.163,186.86z"/>
</g>
<g>
</g>
<g>
</g>
<g>
</g>
<g>
</g>
<g>
</g>
<g>
</g>
<g>
</g>
<g>
</g>
<g>
</g>
<g>
</g>
<g>
</g>
<g>
</g>
<g>
</g>
<g>
</g>
<g>
</g>
</svg>
