<?xml version="1.0" encoding="iso-8859-1"?>
<!-- Generator: Adobe Illustrator 19.0.0, SVG Export Plug-In . SVG Version: 6.00 Build 0)  -->
<svg version="1.1" id="Capa_1" xmlns="http://www.w3.org/2000/svg" xmlns:xlink="http://www.w3.org/1999/xlink" x="0px" y="0px"
	 viewBox="0 0 512 512" style="enable-background:new 0 0 512 512;" xml:space="preserve">
<circle style="fill:#52BBEF;" cx="256" cy="256" r="245"/>
<path style="fill:#293D7C;" d="M304.794,43.273C301.77,18.88,281.085,0,256,0s-45.771,18.88-48.794,43.273H304.794z"/>
<path style="fill:#1A2B63;" d="M264.504,0.748C261.741,0.263,258.901,0,256,0c-25.085,0-45.771,18.88-48.794,43.273h17.007
	C226.887,21.702,243.376,4.452,264.504,0.748z"/>
<path style="fill:#A53535;" d="M474.742,59.417H333.247v32.557c0,1.654-1.346,3-3,3H181.658c-1.654,0-3-1.346-3-3V59.417h-141.4
	c-5.5,0-10,4.5-10,10V343.9c4.983,12.958,11.035,25.385,18.048,37.174h49.819v-7.039c0-0.542,0.458-1,1-1h85v-32
	c0-0.542,0.458-1,1-1h98.277c0.542,0,1,0.458,1,1v40.039h185.29c7.014-11.79,13.065-24.216,18.049-37.176V69.418
	C484.742,63.917,480.242,59.417,474.742,59.417z"/>
<path style="fill:#994334;" d="M38.596,69.418c0-5.5,4.5-10,10-10H37.258c-5.5,0-10,4.5-10,10V343.9
	c3.314,8.618,7.11,16.994,11.338,25.11V69.418z"/>
<path style="fill:#FFFFFF;" d="M457.072,82.08H333.247v9.894c0,1.654-1.346,3-3,3H181.658c-1.654,0-3-1.346-3-3V82.08H54.928
	c-2.819,0-5.125,2.318-5.125,5.151V353.26c0,2.834,2.306,5.151,5.125,5.151h126.198v-17.375c0-0.542,0.458-1,1-1h98.277
	c0.542,0,1,0.458,1,1v17.375h175.669c2.817,0,5.124-2.317,5.124-5.151V87.231C462.196,84.398,459.89,82.08,457.072,82.08z"/>
<path style="fill:#D9EAFC;" d="M66.81,353.26V87.231c0-2.833,2.306-5.151,5.125-5.151H54.928c-2.819,0-5.125,2.318-5.125,5.151
	V353.26c0,2.834,2.306,5.151,5.125,5.151h17.007C69.116,358.411,66.81,356.094,66.81,353.26z"/>
<g>
	<path style="fill:#AEC1ED;" d="M194.816,300.441c-0.615-2.398-0.942-4.912-0.942-7.5s0.327-5.102,0.942-7.5h-32.304
		c0.615,2.398,0.942,4.912,0.942,7.5s-0.327,5.102-0.942,7.5H194.816z"/>
	<path style="fill:#AEC1ED;" d="M285.2,300.441c-0.614-2.398-0.941-4.912-0.941-7.5s0.327-5.102,0.941-7.5h-32.305
		c0.615,2.398,0.942,4.912,0.942,7.5s-0.327,5.102-0.941,7.5H285.2z"/>
	<path style="fill:#AEC1ED;" d="M375.583,300.441c-0.614-2.398-0.941-4.912-0.941-7.5s0.327-5.102,0.941-7.5h-32.304
		c0.614,2.398,0.941,4.912,0.941,7.5s-0.327,5.102-0.941,7.5H375.583z"/>
	<path style="fill:#AEC1ED;" d="M227.703,213.424h-38.488v15h38.488c-0.615-2.399-0.942-4.912-0.942-7.501
		C226.761,218.335,227.088,215.823,227.703,213.424z"/>
	<path style="fill:#AEC1ED;" d="M133.472,262.829c2.589,0,5.102,0.332,7.5,0.954v-17.706h-15v17.706
		C128.37,263.161,130.883,262.829,133.472,262.829z"/>
	<rect x="125.97" y="179.29" style="fill:#AEC1ED;" width="15" height="16.481"/>
</g>
<path style="fill:#2BB381;" d="M184.549,238.412c0,1.65-1.35,3-3,3H85.395c-1.65,0-3-1.35-3-3v-34.976c0-1.65,1.35-3,3-3h96.154
	c1.65,0,3,1.35,3,3V238.412z"/>
<path style="fill:#37C47A;" d="M181.549,248.912H85.395c-5.79,0-10.5-4.71-10.5-10.5v-34.976c0-5.789,4.71-10.5,10.5-10.5h96.154
	c5.79,0,10.5,4.711,10.5,10.5v34.976C192.049,244.202,187.339,248.912,181.549,248.912z M89.895,233.912h87.154v-25.976H89.895
	V233.912z"/>
<path style="fill:#FFD00D;" d="M184.549,171.624c0,1.65-1.35,3-3,3H85.395c-1.65,0-3-1.35-3-3v-34.975c0-1.65,1.35-3,3-3h96.154
	c1.65,0,3,1.35,3,3V171.624z"/>
<path style="fill:#FFAF10;" d="M181.549,182.124H85.395c-5.79,0-10.5-4.71-10.5-10.5v-34.975c0-5.79,4.71-10.5,10.5-10.5h96.154
	c5.79,0,10.5,4.71,10.5,10.5v34.975C192.049,177.414,187.339,182.124,181.549,182.124z M89.895,167.124h87.154v-25.975H89.895
	V167.124z"/>
<path style="fill:#AEC1ED;" d="M327.285,146.253h-26.544v15h22.044v52.171h-37.001c0.614,2.398,0.941,4.911,0.941,7.499
	c0,2.589-0.327,5.102-0.941,7.501h41.501c5.79,0,10.5-4.71,10.5-10.5v-61.171C337.785,150.963,333.075,146.253,327.285,146.253z"/>
<path style="fill:#FE3745;" d="M296.076,171.624c0,1.65-1.35,3-3,3h-72.665c-1.65,0-3-1.35-3-3v-34.975c0-1.65,1.35-3,3-3h72.665
	c1.65,0,3,1.35,3,3V171.624z"/>
<path style="fill:#B7092B;" d="M293.076,182.124h-72.665c-5.789,0-10.5-4.71-10.5-10.5v-34.975c0-5.79,4.711-10.5,10.5-10.5h72.665
	c5.79,0,10.5,4.71,10.5,10.5v34.975C303.576,177.414,298.866,182.124,293.076,182.124z M224.911,167.124h63.665v-25.975h-63.665
	L224.911,167.124L224.911,167.124z"/>
<ellipse style="fill:#6DC3ED;" cx="256.74" cy="220.92" rx="24.982" ry="25.11"/>
<path style="fill:#2DA1DC;" d="M256.743,253.536c-17.911,0-32.482-14.63-32.482-32.612s14.571-32.611,32.482-32.611
	s32.482,14.629,32.482,32.611C289.226,238.906,274.654,253.536,256.743,253.536z M256.743,203.313c-9.64,0-17.482,7.9-17.482,17.611
	c0,9.712,7.842,17.612,17.482,17.612c9.64,0,17.482-7.901,17.482-17.612C274.226,211.213,266.383,203.313,256.743,203.313z"/>
<ellipse style="fill:#FE3745;" cx="133.47" cy="292.94" rx="24.982" ry="25.11"/>
<path style="fill:#B7092B;" d="M133.472,325.553c-17.911,0-32.483-14.63-32.483-32.612s14.572-32.612,32.483-32.612
	c17.91,0,32.481,14.629,32.481,32.612C165.954,310.923,151.382,325.553,133.472,325.553z M133.472,275.329
	c-9.64,0-17.483,7.9-17.483,17.612c0,9.711,7.843,17.612,17.483,17.612c9.639,0,17.481-7.901,17.481-17.612
	C150.954,283.229,143.111,275.329,133.472,275.329z"/>
<ellipse style="fill:#FFD00D;" cx="223.85" cy="292.94" rx="24.981" ry="25.11"/>
<path style="fill:#FFAF10;" d="M223.856,325.553c-17.911,0-32.482-14.63-32.482-32.612s14.571-32.612,32.482-32.612
	c17.91,0,32.481,14.629,32.481,32.612C256.337,310.923,241.766,325.553,223.856,325.553z M223.856,275.329
	c-9.64,0-17.482,7.9-17.482,17.612c0,9.711,7.842,17.612,17.482,17.612c9.639,0,17.481-7.901,17.481-17.612
	C241.337,283.229,233.495,275.329,223.856,275.329z"/>
<ellipse style="fill:#2BB381;" cx="314.24" cy="292.94" rx="24.981" ry="25.11"/>
<path style="fill:#37C47A;" d="M314.24,325.553c-17.91,0-32.481-14.63-32.481-32.612s14.571-32.612,32.481-32.612
	c17.91,0,32.48,14.629,32.48,32.612C346.721,310.923,332.15,325.553,314.24,325.553z M314.24,275.329
	c-9.64,0-17.481,7.9-17.481,17.612c0,9.711,7.842,17.612,17.481,17.612c9.639,0,17.48-7.901,17.48-17.612
	C331.721,283.229,323.879,275.329,314.24,275.329z"/>
<ellipse style="fill:#6DC3ED;" cx="404.62" cy="292.94" rx="24.982" ry="25.11"/>
<path style="fill:#2DA1DC;" d="M404.623,325.553c-17.91,0-32.481-14.63-32.481-32.612s14.571-32.612,32.481-32.612
	c17.911,0,32.483,14.629,32.483,32.612C437.105,310.923,422.534,325.553,404.623,325.553z M404.623,275.329
	c-9.64,0-17.481,7.9-17.481,17.612c0,9.711,7.842,17.612,17.481,17.612c9.64,0,17.483-7.901,17.483-17.612
	C422.105,283.229,414.263,275.329,404.623,275.329z"/>
<g>
	<path style="fill:#445EA0;" d="M395.827,172.574h-37.352c-4.143,0-7.5-3.358-7.5-7.5s3.357-7.5,7.5-7.5h37.352
		c4.143,0,7.5,3.358,7.5,7.5S399.97,172.574,395.827,172.574z"/>
	<path style="fill:#445EA0;" d="M395.827,195.288h-37.352c-4.143,0-7.5-3.358-7.5-7.5s3.357-7.5,7.5-7.5h37.352
		c4.143,0,7.5,3.358,7.5,7.5S399.97,195.288,395.827,195.288z"/>
	<path style="fill:#445EA0;" d="M395.827,218.001h-37.352c-4.143,0-7.5-3.358-7.5-7.5s3.357-7.5,7.5-7.5h37.352
		c4.143,0,7.5,3.358,7.5,7.5S399.97,218.001,395.827,218.001z"/>
	<path style="fill:#445EA0;" d="M429.605,172.574h-12.832c-4.143,0-7.5-3.358-7.5-7.5s3.357-7.5,7.5-7.5h12.832
		c4.142,0,7.5,3.358,7.5,7.5S433.748,172.574,429.605,172.574z"/>
	<path style="fill:#445EA0;" d="M429.605,195.288h-12.832c-4.143,0-7.5-3.358-7.5-7.5s3.357-7.5,7.5-7.5h12.832
		c4.142,0,7.5,3.358,7.5,7.5S433.748,195.288,429.605,195.288z"/>
	<path style="fill:#445EA0;" d="M429.605,218.001h-12.832c-4.143,0-7.5-3.358-7.5-7.5s3.357-7.5,7.5-7.5h12.832
		c4.142,0,7.5,3.358,7.5,7.5S433.748,218.001,429.605,218.001z"/>
	<path style="fill:#445EA0;" d="M181.658,96.974c-2.75,0-5-2.25-5-5V46.273c0-2.75,2.25-5,5-5h148.589c2.75,0,5,2.25,5,5v45.701
		c0,2.75-2.25,5-5,5H181.658z"/>
</g>
<path style="fill:#293D7C;" d="M190.831,91.974V46.273c0-2.75,2.25-5,5-5h-14.172c-2.75,0-5,2.25-5,5v45.701c0,2.75,2.25,5,5,5
	h14.172C193.081,96.974,190.831,94.724,190.831,91.974z"/>
<g>
	<path style="fill:#AEC1ED;" d="M204.12,76.62c-1.97,0-3.91-0.8-5.3-2.19c-1.4-1.4-2.2-3.33-2.2-5.31c0-1.97,0.8-3.9,2.2-5.3
		c1.39-1.4,3.32-2.2,5.3-2.2c1.97,0,3.91,0.8,5.3,2.2c1.4,1.4,2.2,3.33,2.2,5.3c0,1.98-0.8,3.91-2.2,5.31
		C208.03,75.82,206.09,76.62,204.12,76.62z"/>
	<path style="fill:#AEC1ED;" d="M307.79,76.62c-1.98,0-3.91-0.8-5.311-2.19c-1.39-1.4-2.189-3.33-2.189-5.31
		c0-1.97,0.8-3.9,2.189-5.3c1.4-1.4,3.33-2.2,5.311-2.2c1.97,0,3.9,0.8,5.3,2.2c1.4,1.4,2.2,3.33,2.2,5.3c0,1.98-0.8,3.91-2.2,5.31
		C311.69,75.82,309.76,76.62,307.79,76.62z"/>
</g>
<path style="fill:#FFAF10;" d="M280.403,338.036h-98.277c-1.65,0-3,1.35-3,3v32h15.277c0.542,0,1,0.458,1,1v68.278h85
	c1.65,0,3-1.35,3-3v-98.278C283.403,339.386,282.054,338.036,280.403,338.036z"/>
<g>
	<path style="fill:#EF9614;" d="M193.298,373.036v-32c0-1.65,1.35-3,3-3h-14.172c-1.65,0-3,1.35-3,3v32H193.298z"/>
	<path style="fill:#EF9614;" d="M244.765,368.5h-27c-4.142,0-7.5-3.358-7.5-7.5s3.358-7.5,7.5-7.5h27c4.142,0,7.5,3.358,7.5,7.5
		S248.907,368.5,244.765,368.5z"/>
</g>
<path style="fill:#FFD00D;" d="M194.403,371.036H96.126c-1.65,0-3,1.35-3,3v64.967c16.1,14.339,34.102,26.584,53.585,36.312h47.692
	c1.65,0,3-1.35,3-3v-98.278C197.403,372.386,196.053,371.036,194.403,371.036z"/>
<g>
	<path style="fill:#FFAF10;" d="M107.298,374.036c0-1.65,1.35-3,3-3H96.126c-1.65,0-3,1.35-3,3v64.967
		c4.572,4.072,9.303,7.969,14.172,11.694V374.036z"/>
	<path style="fill:#FFAF10;" d="M167.79,407.944h-45.052c-4.142,0-7.5-3.358-7.5-7.5s3.358-7.5,7.5-7.5h45.052
		c4.142,0,7.5,3.358,7.5,7.5S171.933,407.944,167.79,407.944z"/>
	<path style="fill:#FFAF10;" d="M167.79,427.342h-45.052c-4.142,0-7.5-3.358-7.5-7.5s3.358-7.5,7.5-7.5h45.052
		c4.142,0,7.5,3.358,7.5,7.5S171.933,427.342,167.79,427.342z"/>
	<path style="fill:#FFAF10;" d="M167.79,446.739h-45.052c-4.142,0-7.5-3.358-7.5-7.5s3.358-7.5,7.5-7.5h45.052
		c4.142,0,7.5,3.358,7.5,7.5S171.933,446.739,167.79,446.739z"/>
</g>
<path style="fill:#FFD00D;" d="M418.874,509c0,1.65-1.35,3-3,3h-98.277c-1.65,0-3-1.35-3-3v-98.278c0-1.65,1.35-3,3-3h98.277
	c1.65,0,3,1.35,3,3V509z"/>
<g>
	<path style="fill:#FFAF10;" d="M328.772,509v-98.278c0-1.65,1.35-3,3-3h-14.175c-1.65,0-3,1.35-3,3V509c0,1.65,1.35,3,3,3h14.175
		C330.121,512,328.772,510.65,328.772,509z"/>
	<path style="fill:#FFAF10;" d="M339.77,445.48c-1.97,0-3.91-0.8-5.3-2.2c-1.39-1.39-2.189-3.32-2.189-5.3
		c0-1.97,0.8-3.91,2.189-5.3c1.4-1.4,3.33-2.2,5.3-2.2c1.98,0,3.91,0.8,5.311,2.2c1.39,1.4,2.189,3.33,2.189,5.3
		s-0.8,3.91-2.189,5.3C343.68,444.68,341.75,445.48,339.77,445.48z"/>
	<path style="fill:#FFAF10;" d="M339.77,467.36c-1.97,0-3.899-0.8-5.3-2.2c-1.39-1.39-2.189-3.32-2.189-5.3
		c0-1.97,0.8-3.91,2.189-5.3c1.4-1.4,3.33-2.2,5.3-2.2c1.98,0,3.91,0.8,5.311,2.2c1.39,1.4,2.189,3.329,2.189,5.3
		c0,1.97-0.8,3.91-2.189,5.3C343.68,466.56,341.75,467.36,339.77,467.36z"/>
	<path style="fill:#FFAF10;" d="M339.77,489.24c-1.97,0-3.899-0.8-5.3-2.2c-1.39-1.39-2.189-3.32-2.189-5.3
		c0-1.97,0.8-3.91,2.189-5.3c1.4-1.4,3.33-2.2,5.3-2.2c1.98,0,3.91,0.8,5.311,2.2c1.39,1.4,2.189,3.33,2.189,5.3
		c0,1.98-0.8,3.91-2.189,5.3C343.68,488.44,341.75,489.24,339.77,489.24z"/>
	<path style="fill:#FFAF10;" d="M393.134,445.481h-34.219c-4.143,0-7.5-3.358-7.5-7.5s3.357-7.5,7.5-7.5h34.219
		c4.143,0,7.5,3.358,7.5,7.5S397.276,445.481,393.134,445.481z"/>
	<path style="fill:#FFAF10;" d="M393.134,467.361h-34.219c-4.143,0-7.5-3.358-7.5-7.5s3.357-7.5,7.5-7.5h34.219
		c4.143,0,7.5,3.358,7.5,7.5S397.276,467.361,393.134,467.361z"/>
	<path style="fill:#FFAF10;" d="M393.134,489.241h-34.219c-4.143,0-7.5-3.358-7.5-7.5s3.357-7.5,7.5-7.5h34.219
		c4.143,0,7.5,3.358,7.5,7.5S397.276,489.241,393.134,489.241z"/>
</g>
<g>
</g>
<g>
</g>
<g>
</g>
<g>
</g>
<g>
</g>
<g>
</g>
<g>
</g>
<g>
</g>
<g>
</g>
<g>
</g>
<g>
</g>
<g>
</g>
<g>
</g>
<g>
</g>
<g>
</g>
</svg>
