<svg id="Layer_1" enable-background="new 0 0 493.149 493.149" height="512" viewBox="0 0 493.149 493.149" width="512" xmlns="http://www.w3.org/2000/svg"><path d="m486.9 310.786-344.595-273.434c-10.779-8.554-26.741-.867-26.741 12.918v273.435c0 9.107 7.383 16.49 16.491 16.49h344.595c15.586-.001 22.451-19.728 10.25-29.409z" fill="#e88793"/><path d="m142.305 37.352c-10.779-8.554-26.741-.867-26.741 12.918v127.61c102.099 7.85 150.063 56.436 275.84 57.131z" fill="#fc93a0"/><path d="m276.087 143.507-133.782-106.155c-10.779-8.554-26.741-.867-26.741 12.918v49.947c56.466 2.08 80.726 30.251 160.523 43.29z" fill="#fda5b7"/><path d="m383.386 177.855c34.691 18.107 77.147-6.989 77.147-46.832 0-37.965-39.002-63.417-73.604-48.525v-62.051c0-8.837-7.164-16-16-16s-16 7.163-16 16v147.378c0 15.023 18.992 21.77 28.457 10.03zm24.344-67.635c11.47 0 20.802 9.332 20.802 20.803 0 11.47-9.332 20.802-20.802 20.802s-20.802-9.332-20.802-20.802c.001-11.471 9.332-20.803 20.802-20.803z" fill="#fdaa6a"/><path d="m47.179 111.3h-14.013c-8.836 0-16 7.163-16 16s7.164 16 16 16h14.014c8.291 0 15.037 6.746 15.037 15.037v4.999c-30.591-10.389-62.217 12.535-62.217 44.608 0 34.401 35.954 57.332 67.13 42.629 10.115 9.734 27.086 2.566 27.086-11.521v-80.715c0-25.936-21.101-47.037-47.037-47.037zm-.071 111.752c-8.331 0-15.108-6.777-15.108-15.108 0-8.33 6.777-15.107 15.108-15.107s15.108 6.777 15.108 15.107c0 8.331-6.778 15.108-15.108 15.108z" fill="#91c656"/><path d="m293.583 390.611c8.836 0 16-7.163 16-16s-7.164-16-16-16c-35.866 0-65.045 29.179-65.045 65.045s29.179 65.046 65.045 65.046c8.836 0 16-7.163 16-16s-7.164-16-16-16c-18.221 0-33.045-14.824-33.045-33.046-.001-18.221 14.823-33.045 33.045-33.045z" fill="#ae5ecc"/></svg>